<?xml version="1.0" encoding="UTF-8"?>
<svg width="32px" height="32px" viewBox="0 0 32 32" version="1.1" xmlns="http://www.w3.org/2000/svg" xmlns:xlink="http://www.w3.org/1999/xlink">
    <!-- Generator: Sketch 49.3 (51167) - http://www.bohemiancoding.com/sketch -->
    <title>ic_grlc</title>
    <desc>Created with Sketch.</desc>
    <defs></defs>
    <g id="Preparing-icons" stroke="none" stroke-width="1" fill="none" fill-rule="evenodd">
        <g id="ic_grlc" transform="translate(-0.000000, 0.000000)" fill-rule="nonzero">
            <rect id="bounds" fill-opacity="0" fill="#FFFFFF" x="0" y="0" width="32" height="32"></rect>
            <circle id="Background" fill="#EBBC4C" cx="16" cy="16" r="16"></circle>
            <path d="M27.9495354,14.8939606 C27.897029,14.3643893 27.8182695,13.8391945 27.7001302,13.3183765 C27.4419742,12.1892078 27.0306746,11.1169354 26.4574804,10.1059355 C25.6392567,8.66165007 24.571628,7.43619578 23.2502186,6.43394921 C22.1475857,5.59801431 20.9355645,4.96778066 19.6141551,4.55200152 C18.6384125,4.24563794 17.6407922,4.06181979 16.6212942,4.01367694 C16.1443617,3.99179383 15.6630536,3.99617046 15.1817456,4.02680682 C14.6741844,4.06181979 14.1666231,4.12309251 13.667813,4.22375483 C12.3507792,4.48635218 11.1081293,4.95027417 9.94861448,5.63302729 C9.18727264,6.07944279 8.4784372,6.60026087 7.83523462,7.2086114 C7.61645823,7.40555942 6.92074933,8.14520864 6.85074089,8.22836448 C6.0937746,9.12557207 5.47682519,10.1103122 5.00426821,11.1825847 C4.41357197,12.5262078 4.08540739,13.9311037 4.01539895,15.3928956 C3.98477026,16.0362591 3.99789684,16.6796226 4.07228081,17.3229861 C4.15979137,18.0757652 4.30418378,18.819791 4.53171122,19.5419337 C5.21429354,21.7214918 6.41318812,23.5596733 8.137146,25.0608548 C8.98162288,25.7961273 9.90923472,26.4001013 10.9243571,26.8727765 C12.324526,27.5292699 13.7990788,27.8969062 15.3392646,27.9800621 C16.0437246,28.0194517 16.7481845,28.0019452 17.4526445,27.9144127 C18.2577415,27.8137504 19.0497121,27.6386855 19.8198049,27.3804648 C21.0362016,26.9734389 22.1563367,26.3825948 23.1845857,25.6123093 C23.468995,25.3978547 25.3198432,23.5728031 25.5604972,23.2533097 C26.3830964,22.1635306 27.0087969,20.9730893 27.4288475,19.6732325 C27.7438855,18.6884924 27.9364087,17.6774925 27.9845395,16.6446096 C28.0107927,16.0668954 28.0064172,15.480428 27.9495354,14.8939606 Z M23.5346279,9.01615656 C23.560881,9.13870192 23.5258769,9.25249416 23.4864971,9.36190968 C23.2764718,9.96150696 23.062071,10.5611043 22.8695477,11.1650782 C22.672649,11.7865586 22.4976278,12.4211689 22.4013662,13.068909 C22.3182312,13.6334933 22.3051046,14.1980776 22.3444844,14.7670386 C22.3838642,15.3710125 22.5195055,15.9618565 22.6332692,16.5527006 C22.7207798,17.0078693 22.7382818,17.4630381 22.7032777,17.9269601 C22.6376447,18.7410118 22.4057418,19.5025442 22.0294464,20.2246869 C21.9113071,20.4478946 21.7712902,20.6579725 21.6356489,20.872427 C21.4737544,21.0825049 21.329362,21.3144659 21.1412142,21.5026606 C20.9793198,21.6689723 20.8086742,21.8309074 20.633653,21.9840891 C20.1217163,22.4305046 19.5616488,22.7893877 18.9403238,23.0607383 C18.2489905,23.3583486 17.5314039,23.5202837 16.7788132,23.5421668 C16.4681507,23.55092 16.1574882,23.5246603 15.8512013,23.4765174 C14.9848468,23.3495954 14.2060029,23.0213487 13.501543,22.5005306 C13.2127582,22.2860761 12.9896062,21.9928424 12.6439395,21.8527905 C12.5870577,21.8309074 12.5389269,21.7915178 12.4864206,21.7565048 C11.9438551,21.3976218 11.4712981,20.9555829 11.0337454,20.4697778 C10.6618255,20.0583752 10.3161588,19.620713 10.036125,19.1392845 C10.0011208,19.0780118 9.95736552,19.0254923 9.90923472,18.9773494 C9.5898212,18.6491028 9.31416296,18.2858431 9.09976208,17.8831938 C8.51344144,16.780285 8.3340448,15.6161034 8.54407008,14.3862724 C8.68408696,13.5634674 8.99912496,12.8106882 9.44980432,12.1104286 C9.66858072,11.7690521 9.92673688,11.4539353 10.2067706,11.156325 C10.425547,10.946247 10.6311968,10.7230394 10.8806018,10.5479744 C11.2175175,10.3116368 11.5631842,10.088429 11.9307285,9.90461088 C12.56518,9.58949408 13.2346358,9.39254608 13.9347202,9.31376688 C14.5822983,9.24374088 15.2255009,9.30939024 15.8599524,9.4538188 C16.6475474,9.63763696 17.4482689,9.71641616 18.253366,9.67264992 C18.9709526,9.63326032 19.6666614,9.47570192 20.3536193,9.27437728 C21.1237122,9.04679288 21.8806785,8.77544232 22.6376447,8.50846832 C23.070822,8.3684164 23.4427418,8.58287088 23.5346279,9.01615656 Z M26.3743454,16.9378434 C26.2212019,18.5790768 25.7136407,20.0977648 24.8429107,21.4982841 C24.5016195,22.0453618 24.107822,22.5530501 23.6790203,23.0388552 C23.5827587,23.1438942 23.0358178,23.7347382 22.9045519,23.8003875 C22.5063789,24.1373874 22.0994548,24.4568809 21.6619021,24.7413614 C20.5198894,25.4810106 19.281615,25.9799455 17.947079,26.2337897 C17.3651339,26.3475818 16.7744377,26.4001013 16.1793659,26.4088546 C14.3941506,26.4394909 12.713948,26.032465 11.1343825,25.2009067 C10.4036694,24.8157639 9.72983808,24.3430887 9.11288872,23.7916342 C8.0408844,22.8375306 7.19203205,21.7083619 6.57945817,20.4128817 C6.16378304,19.5375571 5.88374927,18.6140898 5.7306058,17.6599861 C5.66059736,17.2354537 5.62121761,16.8109213 5.60809102,16.3820123 C5.56871128,16.3251162 5.58621338,16.2638434 5.59058891,16.2025707 C5.59933997,16.0099994 5.56433575,15.8130514 5.60809102,15.6204799 C5.66934842,14.031766 6.06752143,12.534961 6.81136114,11.1256886 C7.19203205,10.4079225 8.74971992,8.54348128 8.95099416,8.34215664 C9.5416904,7.81696194 10.1630154,7.34428671 10.8499732,6.9547673 C11.8694711,6.37705313 12.954602,5.97440385 14.1141168,5.76432597 C14.6741844,5.65928702 15.243003,5.60676755 15.8118216,5.59801431 C17.8683196,5.56300133 19.7672986,6.09257266 21.5131342,7.17797506 C21.81067,7.3617932 22.0994548,7.57187108 22.3794886,7.78194897 C22.4144928,7.8082087 22.440746,7.83884506 22.4888768,7.87823466 C22.2919781,7.94826062 22.1125814,8.01391 21.9288093,8.07955928 C21.6619021,8.1714684 21.3906194,8.26337744 21.1280877,8.35966312 C21.0580793,8.38592288 21.0055729,8.3771696 20.948691,8.33778 C20.0954632,7.77757234 19.1678513,7.38367631 18.178982,7.14296207 C17.5751592,6.99853353 16.9625854,6.9153777 16.3412604,6.89349458 C14.7135641,6.83222187 13.1777539,7.18235167 11.7382053,7.93513075 C10.7799647,8.43844232 9.93986344,9.09055912 9.22227688,9.90023432 C9.16977056,9.9571304 9.1041376,9.99652 9.07788448,10.0752992 C8.9597452,10.1672082 8.88098576,10.2897537 8.7934752,10.4035458 C8.16777472,11.2175977 7.67771562,12.1104286 7.35392657,13.0820389 C7.02138646,14.0755322 6.86386747,15.0996618 6.8857451,16.1500513 C6.89449616,16.60522 6.92950038,17.0603888 7.00388435,17.5111809 C7.1526523,18.4302716 7.43706159,19.3012195 7.85711225,20.1284012 C8.46093504,21.3188426 9.28353424,22.3298423 10.3292854,23.1614006 C11.7338298,24.2730627 13.3265218,24.9120497 15.1029861,25.0958678 C15.6543026,25.1527639 16.2099946,25.1527639 16.7656866,25.104621 C17.4176402,25.0521016 18.0477162,24.9295562 18.6734166,24.7369847 C19.3034926,24.5444134 19.9073154,24.281816 20.4805096,23.9623226 C20.8305518,23.7697511 21.1587164,23.5465434 21.4737544,23.3058292 C21.6969063,23.1351409 21.9113071,22.9556994 22.1213325,22.763128 C22.366362,22.5399202 22.6026405,22.3079592 22.8257924,22.0628683 C23.1408304,21.7258684 23.4121131,21.3582322 23.6615182,20.9687127 C24.2172102,20.1108947 24.6197588,19.1830507 24.8604128,18.1851808 C25.0048052,17.5943367 25.0835647,16.9903628 25.1098178,16.3820123 C25.1754508,14.7757918 24.8385352,13.2571038 24.1121976,11.8259482 C23.9809318,11.5677274 23.8365394,11.3138834 23.6746448,11.0687925 C23.6440161,11.0206497 23.6090119,10.9725068 23.635265,10.9068574 C23.7971596,10.4473121 23.9546786,9.98776672 24.1209486,9.51509152 C24.2522145,9.63763696 24.3353494,9.77331224 24.4272355,9.90023432 C25.2192061,10.9943899 25.7836491,12.1979611 26.1074382,13.5109479 C26.247455,14.066779 26.3305901,14.6357399 26.3787209,15.2090774 C26.4268517,15.782415 26.4268517,16.3645058 26.3743454,16.9378434 Z M7.23954895,7.93950738 C7.20259257,8.00515672 7.147158,7.86948142 7.24878804,7.83884506 C7.23954895,7.86948142 7.25802714,7.90887102 7.23954895,7.93950738 Z M16.9975896,10.9287406 C16.984463,10.9900133 16.9319566,10.9943899 16.8969524,11.0118964 C16.3018806,11.2920002 15.7068089,11.5808574 15.1248638,11.8915975 C14.3591464,12.2986234 13.6065556,12.7275325 12.9239733,13.2614804 C12.2020112,13.8260647 11.6200661,14.5131945 11.1562601,15.3009865 C10.7843402,15.9268435 10.5218086,16.5920902 10.3817918,17.3054797 C10.3730406,17.3492458 10.3861673,17.3973887 10.3380365,17.4499082 C10.1673909,17.1873108 10.0448761,16.9115836 9.94861448,16.6227266 C9.79109552,16.1500513 9.72546256,15.6598696 9.75609128,15.1609346 C9.81297312,14.2155841 10.1236356,13.3577661 10.6924542,12.5962338 C11.4275428,11.6114937 12.390159,10.959377 13.593429,10.6792731 C14.2366316,10.5260913 14.8842097,10.5392212 15.5274122,10.692403 C16.0087203,10.8105718 16.4987794,10.8805978 16.9975896,10.9287406 Z M21.0624548,19.2224403 C20.5592691,20.3866219 19.7366699,21.2488166 18.5990327,21.800271 C18.095847,22.0453618 17.5620326,22.1897904 17.0019651,22.2379333 C16.1618638,22.3123358 15.3742688,22.1460242 14.6391802,21.7214918 C14.612927,21.7083619 14.5822983,21.6996087 14.5647962,21.6514658 C14.7879481,21.603323 15.0067245,21.5595568 15.2167498,21.4982841 C16.0656022,21.2531932 16.818193,20.8330374 17.5182774,20.2990894 C18.3977584,19.6338429 19.0322099,18.7672716 19.5835264,17.8262978 C20.0998387,16.9509732 20.5548936,16.0406358 20.9836953,15.121545 C21.0055729,15.0777788 21.014324,15.0296359 21.0668303,14.9902463 C21.0930834,15.1959476 21.1193366,15.3928956 21.1455898,15.585467 C21.189345,15.9268435 21.2593535,16.2638434 21.3337375,16.6008434 C21.5306362,17.5068043 21.4212481,18.3821288 21.0624548,19.2224403 Z M21.6575266,10.3510264 C21.3337375,11.1607016 21.0055729,11.9397404 20.6686573,12.7144026 C20.2354801,13.7035193 19.7804252,14.6838827 19.2859906,15.642363 C18.8571888,16.4739214 18.4065094,17.2923498 17.8858217,18.0713886 C17.391387,18.8066612 16.7350579,19.3581156 15.9737161,19.7957778 C15.4705304,20.084635 14.9323405,20.2947129 14.3547709,20.3866219 C13.7815767,20.478531 13.2171337,20.4566479 12.6833193,20.2028038 C12.6220619,20.176544 12.5695555,20.1371544 12.5258003,20.0933882 C12.3726568,19.9402064 12.2282644,19.7782714 12.0663698,19.6382194 C11.777585,19.388752 11.6769479,19.0561286 11.6200661,18.7059989 C11.4931758,17.905077 11.685699,17.1566745 12.018239,16.4345318 C12.3551547,15.7080124 12.8189606,15.0734022 13.4096569,14.5394542 C13.7903278,14.1980776 14.223505,13.9311037 14.6654333,13.6685063 C16.1574882,12.7800519 17.7195516,12.0360261 19.3034926,11.3401431 C20.0429568,11.016273 20.7867966,10.7055328 21.5350118,10.3991693 C21.570016,10.3816628 21.6050202,10.3685329 21.6575266,10.3510264 Z M5.63231186,15.6248566 L5.63231186,16.3820123 C5.54916,16.3251162 5.58611638,16.2638434 5.59535548,16.2025707 C5.60459458,16.0099994 5.53068182,15.817428 5.63231186,15.6248566 Z" fill="#FFFFFF"></path>
        </g>
    </g>
</svg>